<svg xmlns="http://www.w3.org/2000/svg" version="1.0" width="128.000000pt" height="128.000000pt" viewBox="0 0 128.000000 128.000000" preserveAspectRatio="xMidYMid meet">
  <g transform="translate(0.000000,128.000000) scale(0.100000,-0.100000)" fill="#ffffff" stroke="none">
    <path d="M0 640 l0 -640 640 0 640 0 0 640 0 640 -640 0 -640 0 0 -640z m659 514 c13 -48 19 -61 24 -45 5 19 8 20 33 10 55 -20 94 -51 126 -97 29 -41 32 -56 40 -151 15 -189 27 -261 50 -302 21 -38 21 -41 5 -68 -24 -41 -22 -44 29 -38 75 8 113 62 84 118 -13 23 -47 25 -72 2 -22 -20 -33 -12 -19 15 15 29 63 43 92 28 51 -25 63 -95 27 -166 -27 -51 -76 -81 -148 -88 -41 -4 -49 -1 -63 18 -10 15 -22 20 -32 16 -14 -5 -13 -12 12 -58 33 -61 64 -86 116 -95 49 -8 78 8 108 61 24 41 24 41 27 13 4 -33 -33 -103 -70 -130 -34 -25 -133 -25 -192 1 -39 18 -101 76 -124 118 -9 17 -14 17 -45 6 -28 -10 -40 -10 -70 3 l-36 15 -40 -54 c-49 -66 -83 -91 -144 -106 -73 -19 -156 20 -192 91 -17 32 -20 69 -5 69 6 0 10 -4 10 -10 0 -5 14 -25 31 -45 35 -40 74 -46 134 -21 37 16 95 88 95 118 0 29 -29 34 -47 8 -14 -20 -22 -22 -70 -17 -70 7 -120 39 -144 91 -28 63 -25 112 10 147 36 36 51 36 90 3 40 -33 44 -66 5 -35 -48 38 -84 22 -84 -36 0 -51 37 -83 95 -83 25 0 45 2 45 5 0 2 -9 19 -20 37 -19 32 -19 32 1 65 31 50 39 87 49 241 12 195 41 252 155 303 l40 18 12 -27 12 -27 1 31 c0 34 29 128 37 120 3 -3 13 -35 22 -72z"/>
    <path d="M460 776 c0 -33 37 -76 65 -76 13 0 36 10 51 23 l26 23 -63 27 c-78 33 -79 33 -79 3z"/>
    <path d="M726 771 l-59 -27 28 -22 c40 -32 71 -29 95 11 23 36 26 67 8 66 -7 0 -40 -13 -72 -28z"/>
  </g>
</svg>
